<svg id="Layer_1" data-name="Layer 1" xmlns="http://www.w3.org/2000/svg" viewBox="0 0 511.9 511.79"><defs><style>.cls-1{fill:#fefefe;}.cls-2{fill:#a0a0a0;}.cls-3{fill:#8b8b8b;}.cls-4{fill:#8c8c8c;}.cls-5{fill:#898989;}.cls-6{fill:#8a8a8a;}</style></defs><title>fb-icon</title><path class="cls-1" d="M513,513H1.1V1.17H513Zm-107-375-47.9.23c-2.13.31-4.3.48-6.39,1-9.13,2.07-15.56,9.05-15.73,17.58-.18,9.47.07,19,.13,28.43,0,5.31-.11,10.63-.13,15.94,0,6.91,0,6.92,6.72,6.94l64.28.13c-.12,1.82-.15,3.65-.38,5.46-1.88,14.61-3.76,29.23-5.74,43.83-1.2,8.85-2.59,17.67-3.89,26.5l-60.83.3c-.4,1.89-1.15,3.78-1.15,5.67q-.09,104.74,0,209.47c0,6.63,0,6.66,6.65,6.66q58.24,0,116.48,0a28.31,28.31,0,0,0,5.45-.51C491.7,500,508.91,478.88,508.91,450q0-178.73,0-357.45c0-14.64,0-29.32-1-43.92C506.28,24.64,482.26,3,458.29,3H54.84C29.35,3,5,27.19,5,52.72Q5,254.19,5,455.67C5,481.4,28.71,505.89,54.39,506c61.16.21,122.32,0,183.48.11,3.87,0,5.21-1.18,5.2-5.13q-.14-105.74,0-211.47c0-4.21-1.52-5.46-5.55-5.42-13.16.12-26.33,0-39.49-.1q0-38,0-76l-.1.11c13.47,0,26.94-.13,40.4,0,3.4,0,4.7-1.1,4.68-4.6-.14-23.78-.14-47.55-.18-71.33.36-2.13.8-4.25,1.07-6.38,4.68-37,37.25-62,72.3-64.27C346,59.53,376.05,61,406,61q0,38.52,0,77Z" transform="translate(-1.1 -1.17)"/><path class="cls-2" d="M198,284c13.16.05,26.33.22,39.49.1,4,0,5.55,1.21,5.55,5.42q-.15,105.74,0,211.47c0,3.95-1.34,5.14-5.2,5.13-61.16-.08-122.32.11-183.48-.11C28.71,505.89,5,481.4,5,455.67Q5,254.19,5,52.72C5,27.19,29.35,3,54.84,3H458.29c24,0,48,21.69,49.62,45.65,1,14.6,1,29.28,1,43.92q.1,178.73,0,357.45c0,28.9-17.21,50-45.35,55.54a28.31,28.31,0,0,1-5.45.51q-58.24,0-116.48,0c-6.62,0-6.65,0-6.65-6.66q0-104.74,0-209.47c0-1.89.75-3.78,1.15-5.67A20.92,20.92,0,0,0,340,285q26.35.07,52.69,0a18.94,18.94,0,0,0,4.27-1c1.3-8.83,2.69-17.65,3.89-26.5,2-14.6,3.85-29.22,5.74-43.83.23-1.81.26-3.64.38-5.46a43.15,43.15,0,0,0-6.76-1.08c-18.93-.09-37.86-.19-56.79,0-5.06.06-6.74-1.7-6.57-6.65s-.46-10.21-.75-15.31c-.06-9.48-.31-19-.13-28.43.16-8.53,6.6-15.51,15.73-17.58,2.1-.48,4.26-.64,6.39-1q23.51.11,47,.21c.29,0,.59-.28.88-.43l-.1.11a39.64,39.64,0,0,0,1-6.3q.11-32.21,0-64.43A41.23,41.23,0,0,0,406,61c-29.92,0-59.95-1.47-89.75.47-35.05,2.28-67.62,27.26-72.3,64.27-.27,2.14-.71,4.26-1.07,6.38A56.92,56.92,0,0,0,242,139c-.07,20.44,0,40.89,0,61.33,0,6.4-.31,6.68-6.82,6.7-10.3,0-20.61-.05-30.91.06a41,41,0,0,0-6.29,1l.1-.11a33.43,33.43,0,0,0-1,5.77q-.11,32.81,0,65.63A22.23,22.23,0,0,0,198,284Z" transform="translate(-1.1 -1.17)"/><path class="cls-3" d="M198,208.07a41,41,0,0,1,6.29-1c10.3-.11,20.61,0,30.91-.06,6.52,0,6.82-.3,6.82-6.7,0-20.44,0-40.89,0-61.33a56.92,56.92,0,0,1,.83-6.85c0,23.78,0,47.55.18,71.33,0,3.5-1.27,4.62-4.68,4.6C224.9,207.94,211.43,208,198,208.07Z" transform="translate(-1.1 -1.17)"/><path class="cls-4" d="M336.15,185.12c.28,5.1.92,10.22.75,15.31s1.51,6.72,6.57,6.65c18.93-.23,37.86-.13,56.79,0a43.15,43.15,0,0,1,6.76,1.08L342.73,208c-6.73,0-6.74,0-6.72-6.94C336,195.75,336.1,190.44,336.15,185.12Z" transform="translate(-1.1 -1.17)"/><path class="cls-5" d="M406,61a41.24,41.24,0,0,1,1,6.31q.11,32.21,0,64.43a39.64,39.64,0,0,1-1,6.3Q406,99.52,406,61Z" transform="translate(-1.1 -1.17)"/><path class="cls-4" d="M198,284a22.23,22.23,0,0,1-1-4.6q-.1-32.82,0-65.63a33.43,33.43,0,0,1,1-5.77Q198.05,246,198,284Z" transform="translate(-1.1 -1.17)"/><path class="cls-6" d="M397,283.92a18.94,18.94,0,0,1-4.27,1q-26.35.11-52.69,0a20.92,20.92,0,0,1-3.86-.73Z" transform="translate(-1.1 -1.17)"/><path class="cls-6" d="M406,137.93c-.29.15-.59.44-.88.43q-23.51-.08-47-.21Z" transform="translate(-1.1 -1.17)"/></svg>