<svg xmlns="http://www.w3.org/2000/svg" viewBox="0 0 512 472.53"><defs><style>.cls-1{fill:#a0a0a0;}</style></defs><title>gplus-icon</title><g id="Layer_2" data-name="Layer 2"><path class="cls-1" d="M6,390a64.35,64.35,0,0,0,3.46-7c8.82-24.75,26.44-41.42,49-53.65,18-9.79,37.42-15.62,57.56-18.82,10.79-1.72,21.75-2.31,32.62-3.53a26.49,26.49,0,0,0,5-1.56c-.6-1.66-.87-3.56-1.86-4.93-8.27-11.47-14.28-23.81-13.33-38.32.36-5.54,2.14-11,3.69-16.44,1.37-4.76,1-5.78-3.89-5.84-7.26-.08-14.53.16-21.79,0a74,74,0,0,1-39.87-12.95c-14.93-10.12-26.64-23.34-34.17-40C35.77,172.3,31.75,157,32.22,141.13c.82-27.3,10.09-51.64,28.3-72.39,15.15-17.26,33.91-28.46,55.72-35.31A141.57,141.57,0,0,1,158.83,27q57.23-.09,114.47,0a13.31,13.31,0,0,1,6.82,1.69c-6.56,4.09-13.64,7.55-19.58,12.41-12,9.83-26,5.89-39.26,6.67-1.32.08-2.66-.05-4,0-.27,0-.52.35-1.64,1.17a82,82,0,0,0,5.89,6.85,98.17,98.17,0,0,1,23.67,33.63c7.5,17.86,10.84,36.17,8.3,55.92-3.64,28.19-17.7,49.57-38.6,67.62a123.84,123.84,0,0,0-17.44,18.41c-8.59,11.26-9.86,28,1.12,39,8,8,16.52,15.43,24.93,23,15.51,13.93,30.94,27.9,40.42,47a90.29,90.29,0,0,1,9.18,48.27c-2.2,27.87-13.84,51.14-33.72,70.34-17.24,16.65-38,26.94-61,33.66-24.58,7.19-49.71,8-74.64,5.91-28-2.4-54.41-11.23-75.56-31.26A76.87,76.87,0,0,1,8.15,436c-.59-1.72-1.43-3.35-2.15-5Q6,410.5,6,390Zm155.35-66.14c-19-.27-35.51,2.83-51.79,7A85.22,85.22,0,0,0,76.3,347.55C55.22,365,49.5,387.88,55,413.73c5.1,23.84,20.89,39.41,42.47,49.09,24.19,10.85,49.75,13,75.8,9.22,25.43-3.68,46.21-14.38,57.46-39.14,5.51-12.12,6.53-24.78,4.56-37.61-2.37-15.44-10.83-27.81-22-38.27-8.61-8.08-18-15.28-26.72-23.28C178.8,326.53,170.65,321.09,161.35,323.86Zm43.33-163.31c0-3.33.26-6.68,0-10-2.09-22.4-7.27-43.86-17.94-63.95-6.11-11.5-13.21-21.86-23.52-30-23.12-18.2-53.49-11-69,9.72C83.07,81.14,80.92,98.5,81.33,116.2a162.16,162.16,0,0,0,7.8,45.14c5.52,17.48,13.19,33.88,26.59,46.85,26,25.18,60.46,17.57,78.3-5.9C203.35,190,205.07,175.46,204.68,160.54Z" transform="translate(-6 -27)"/><path class="cls-1" d="M518,144a64.13,64.13,0,0,1-8.33,1.1c-19.49.1-39,0-58.48.05-7.31,0-7.31,0-7.31,7.13q0,33.49,0,67c0,7.26-.52,7.75-7.58,7.78q-6,0-12,0c-7.33,0-8.11-.78-8.11-8q0-32,0-64c0-9.94,0-9.94-10.21-9.94q-27.74,0-55.48,0c-7.8,0-8.44-.68-8.46-8.66,0-4.67,0-9.33,0-14,0-6.23,1-7.24,7.28-7.26,20.83,0,41.65-.08,62.48.1,3.84,0,4.72-1.2,4.68-4.94-.25-23.32-.27-46.65-.23-70,0-5.41,1.39-6.54,7-6.62,4.66-.06,9.33-.05,14,0,6,.06,6.58.64,6.59,6.63q0,34,0,68c0,7.28,0,7,7.22,6.93,20.66-.17,41.32-.1,62-.07A34,34,0,0,1,518,116Z" transform="translate(-6 -27)"/></g></svg>