<?xml version="1.0" encoding="utf-8"?>
<!-- Generator: Adobe Illustrator 20.1.0, SVG Export Plug-In . SVG Version: 6.00 Build 0)  -->
<svg version="1.1" id="Layer_1" xmlns="http://www.w3.org/2000/svg" xmlns:xlink="http://www.w3.org/1999/xlink" x="0px" y="0px"
	 viewBox="0 0 511.9 511.8" style="enable-background:new 0 0 511.9 511.8;" xml:space="preserve">
<style type="text/css">
	.st0{display:none;fill:#A0A0A0;}
	.st1{display:none;}
	.st2{display:inline;}
	.st3{fill:#A0A0A0;}
	.st4{fill:#919191;}
	.st5{fill:#939393;}
	.st6{fill:#929292;}
	.st7{fill:#909090;}
	.st8{fill:#959595;}
	.st9{fill:#8D8D8D;}
</style>
<title>fb-icon</title>
<path class="st0" d="M197,281c13.2,0,26.3,0.2,39.5,0.1c4,0,5.6,1.2,5.6,5.4c-0.1,70.5-0.1,141,0,211.5c0,4-1.3,5.1-5.2,5.1
	c-61.2-0.1-122.3,0.1-183.5-0.1C27.7,502.9,4,478.4,4,452.7C4,318.4,4,184,4,49.7C4,24.2,28.3,0,53.8,0h403.5
	c24,0,48,21.7,49.6,45.7c1,14.6,1,29.3,1,43.9c0.1,119.2,0.1,238.3,0,357.5c0,28.9-17.2,50-45.4,55.5c-1.8,0.3-3.6,0.5-5.5,0.5
	c-38.8,0-77.7,0-116.5,0c-6.6,0-6.6,0-6.6-6.7c0-69.8,0-139.6,0-209.5c0-1.9,0.8-3.8,1.1-5.7c1.3,0.4,2.6,0.6,3.9,0.7
	c17.6,0,35.1,0,52.7,0c1.5-0.2,2.9-0.5,4.3-1c1.3-8.8,2.7-17.6,3.9-26.5c2-14.6,3.9-29.2,5.7-43.8c0.2-1.8,0.3-3.6,0.4-5.5
	c-2.2-0.5-4.5-0.9-6.8-1.1c-18.9-0.1-37.9-0.2-56.8,0c-5.1,0.1-6.7-1.7-6.6-6.6s-0.5-10.2-0.8-15.3c-0.1-9.5-0.3-19-0.1-28.4
	c0.2-8.5,6.6-15.5,15.7-17.6c2.1-0.5,4.3-0.6,6.4-1c15.7,0.1,31.3,0.1,47,0.2c0.3,0,0.6-0.3,0.9-0.4l-0.1,0.1c0.5-2.1,0.8-4.2,1-6.3
	c0.1-21.5,0.1-43,0-64.4c-0.1-2.1-0.4-4.2-0.9-6.3c-29.9,0-60-1.5-89.8,0.5c-35,2.3-67.6,27.3-72.3,64.3c-0.3,2.1-0.7,4.3-1.1,6.4
	c-0.4,2.3-0.7,4.6-0.9,6.9c-0.1,20.4,0,40.9,0,61.3c0,6.4-0.3,6.7-6.8,6.7c-10.3,0-20.6-0.1-30.9,0.1c-2.1,0.2-4.2,0.5-6.3,1
	l0.1-0.1c-0.5,1.9-0.8,3.8-1,5.8c-0.1,21.9-0.1,43.8,0,65.6C196.2,277.9,196.5,279.5,197,281z"/>
<g class="st1">
	<g class="st2">
		<path class="st3" d="M2.8,416.7c55.3,5.7,105.5-7.1,151.1-41.3c-22.6-2.1-42.3-9.1-59.3-22.6c-17-13.5-29.5-30.3-35.9-52.2
			c14.7,1.2,28.7,2.6,42.8-1.3c-55.8-15.5-81.2-65.8-79-104.9c6.9,2.7,13.6,5.9,20.6,8c6.9,2.1,14,3.3,21.5,4.3
			c-44-40.1-53.1-86.4-27.4-141c56.3,67.4,126.8,104.5,213.8,111c-0.5-4.3-0.7-7.9-1.3-11.4c-2-11.3-0.5-22.5,1.6-33.6
			c3.3-16.8,10.4-31.8,21.2-45C289.8,66,311.8,53,338.4,48.9c29.2-4.6,55.6,3.1,79.3,20.5c3.6,2.6,6.9,5.8,10.1,8.9
			c2.1,2.1,4.1,2.6,7.1,1.9c19.9-5.1,39-11.9,56.9-22.2c1.1-0.7,2.3-1.2,3.5-1.7c0.2-0.1,0.6,0.2,1.5,0.6
			c-7.3,23-21.1,41.2-40.5,55.5c18.8-2.1,36.6-7.5,54.7-15.5c-0.6,1.9-0.7,3-1.3,3.8c-13.4,19.2-29.4,36-47.8,50.5
			c-1.3,1.1-2.5,3.2-2.6,4.8c-0.9,15-0.3,30.2-2.4,45.1c-2.5,17.9-6.6,35.5-11,53c-2.4,9.8-6.7,19.1-10.3,28.5
			c-7.3,19.4-17.4,37.4-28.9,54.4c-13.3,19.7-27.8,38.6-46.3,53.8c-13.3,10.9-26.6,22-41,31.5c-23.7,15.6-49.7,27-77.4,33.3
			c-18.2,4.1-36.8,7-55.4,9c-13.5,1.5-27.3,1.8-40.9,1c-22.2-1.4-44.1-5.1-65.6-11.4c-19.9-5.9-38.8-13.8-57.1-23.3
			c-7.1-3.7-13.9-8.1-20.9-12.2C2.5,418,2.7,417.4,2.8,416.7z"/>
	</g>
</g>
<g class="st1">
	<g class="st2">
		<path class="st3" d="M90.1,505.6c-41.3-10.2-67.6-36-79.5-76.7c-0.5-1.9-0.7-3.9-0.7-5.9c-0.3-24-0.6-48-0.7-72
			c-0.2-53.6-0.2-107.3-0.4-160.9c0-4.8,1.5-6.3,6.3-6.3c32.7,0.2,65.3,0.1,98,0.2c12,0,24,0.4,36,0.7c2.2,0.1,4.4,0.7,7.6,1.2
			c-2.2,4-3.7,7-5.5,10c-14.3,23.8-19.7,49.6-16.4,77.2c6.8,57.1,49.7,99.4,104,108.4c65.7,10.9,130.8-37,140.2-102.6
			c4.4-30.2-1.2-58.2-17.2-84.3c-1.6-2.5-2.2-5.6-3.3-8.4c2.9-0.5,5.7-1.4,8.6-1.4c43.5-0.4,87-0.6,130.4-0.8c8.4,0,8.4,0,8.4,8.6
			c-0.1,33.8-0.1,67.6-0.3,101.5c-0.2,28-0.6,55.9-0.9,83.9c-0.3,1.8-0.8,3.5-0.8,5.3c-0.1,12.4-0.1,24.8,0,37.2
			c0,1.8,0.5,3.5,0.8,5.3c-11.4,42.4-37.9,69.6-81,79.9c-2.1-0.3-4.2-0.8-6.4-0.8c-107,0-214,0-321.1,0
			C94.3,504.8,92.2,505.4,90.1,505.6z"/>
		<path class="st3" d="M219.9,7.9c38.8,0,77.6-0.1,116.4,0C362,8,387.8,8.8,413.6,8.4c13.7-0.2,26.3,2.9,37.7,9.6
			c23.2,13.7,41.8,31.9,50.1,58.5c1.7,5.5,3.2,11.3,3.4,17.1c0.7,22.1,0.8,44.2,1.1,66.4c-0.3,1.1-0.7,2.2-0.8,3.4
			c-0.7,8.5-0.7,8.5-9.1,8.5c-47.5,0-95,0-142.5,0c-2.5,0-4.9,0.5-7.4,0.8c-3.1-2.5-6.2-4.9-9.4-7.4c-18.8-14.8-39.8-25-63.6-28.1
			c-34.2-4.5-65.3,3.9-92,25.6c-8.9,7.3-17.7,10.7-28.8,10c-6.1-0.4-12.3-0.1-18.5-0.2c-2.5-0.3-4.9-0.8-7.4-0.8
			c-36.2-0.1-72.3,0-108.5,0c-7.7,0-7.7,0-8.1-7.5c-0.1-1.5-0.5-2.9-0.8-4.4C9.8,136,9.5,112,11.3,88.2c1.2-15.8,9.3-29.8,19.1-42.2
			c4.8-6.1,10.9-11.2,16.5-16.6c1.4-1.3,3.1-2.2,5.8-4.1c0.5,4,0.8,6.8,1.1,9.7c-0.3,1.8-0.8,3.6-0.8,5.3c-0.1,22-0.1,44.1,0,66.1
			c0,1.8,0.6,3.6,0.9,5.3c0.4,4.6,0.8,9.2,1.1,13.9c0.2,2.9,1.6,4.2,4.4,4.2c3.5,0,6.9,0,10.4,0.1c0.1-10.3,0.2-20.6,0.4-30.9
			c0.3-17.1,0.6-34.1,0.9-51.2c0.3-2.1,0.9-4.2,0.9-6.3c0.1-8.9,0-17.8,0-26.8c3.4-1.3,6.7-2.7,10.2-3.7c3-0.9,5.3,0.2,5.7,3.6
			c0.4,3.4,0.6,6.9,0.9,10.3c-0.3,1.9-0.8,3.9-0.8,5.8c-0.1,27,0,54.1,0,81.1c0,1.9,0.5,3.9,0.8,5.8c0.3,2.6,0.8,5.2,1,7.9
			c0.2,3.2,2,4.1,4.9,4.3c8.8,0.5,9.2,0,9.1-8.8c-0.1-9.8,0.1-19.5,0.2-29.3c0.3-2.3,0.9-4.6,0.9-6.8c0.1-23.3,0.1-46.6,0-70
			c0-4.5,1.4-6.4,6-6.2c3.6,0.2,7.3-0.4,10.9-0.7c0.4,2.1,1,4.2,1,6.2c0.1,35,0.1,69.9,0.2,104.9c0,1.2,0,2.3,0,3.5
			c0.2,6.3,6.7,10,12.3,6.7c1.1-0.7,1.5-3.1,1.5-4.7c0.2-13.1,0.1-26.3,0.2-39.4c0.3-25.4,0.7-50.9,1-76.3c25.3,0,50.6,0,75.9,0
			C216,8.7,217.9,8.2,219.9,7.9z M386,52.9c-0.9,1-1.6,2.2-2.7,2.9c-4.5,2.8-5.6,6.8-5.4,11.9c0.3,7-0.4,14-0.4,20.9
			c0,10.5,0,20.9,0.7,31.3c0.5,7.7,4.7,11.9,12.3,12.7c7.1,0.7,14.3,1.1,21.4,1.1c11.1,0,22.1-0.2,33.2-1.1
			c7.4-0.6,10.8-3.6,11-11.2c0.7-18.2,0.7-36.5,0.4-54.8c-0.1-5.9-3.4-10.8-9.6-12.7c-2.5-0.8-5.2-0.9-7.9-1.3
			c-1.3-0.3-2.6-0.8-3.8-0.8c-14.9-0.1-29.9-0.1-44.8,0C388.8,51.9,387.4,52.6,386,52.9z"/>
		<path class="st3" d="M256.8,160.7c53.3-3.1,99.4,46.6,99.6,95.7c0.2,57.1-43.1,100.3-97.4,102.3c-54.2,2-102.1-45-101.1-99.7
			C159,201.1,207.8,158.4,256.8,160.7z M258.1,328.7c37,0,69.4-31.9,68.5-69c-0.9-40.3-29.7-68.6-70-69.3
			c-36.3-0.7-68.4,29.1-68.3,68.6C188.5,302.7,224,327.8,258.1,328.7z"/>
		<path class="st4" d="M90.1,505.6c2.1-0.3,4.2-0.8,6.4-0.8c107,0,214,0,321.1,0c2.1,0,4.2,0.5,6.4,0.8c-1.8,0-3.7,0.1-5.5,0.1
			c-107.6,0-215.2,0-322.8,0C93.8,505.8,91.9,505.7,90.1,505.6z"/>
		<path class="st5" d="M346.1,172.6c2.5-0.3,4.9-0.8,7.4-0.8c47.5,0,95,0,142.5,0c8.5,0,8.4,0,9.1-8.5c0.1-1.1,0.5-2.2,0.8-3.4
			c0.3,15.8,1.7,12.8-12.1,12.8c-46.9,0.2-93.8,0.1-140.6,0.1C350.8,172.8,348.4,172.7,346.1,172.6z"/>
		<path class="st6" d="M9.2,159.9c0.3,1.5,0.7,2.9,0.8,4.4c0.4,7.5,0.4,7.5,8.1,7.5c36.2,0,72.3,0,108.5,0c2.5,0,4.9,0.5,7.4,0.8
			c-40,0-80.1,0.1-120.1,0.2c-3.7,0-5.1-1.4-4.8-5C9.2,165.2,9.1,162.6,9.2,159.9z"/>
		<path class="st6" d="M121.9,8c-3.6,0.3-7.3,0.9-10.9,0.7c-4.6-0.2-6.1,1.7-6,6.2c0.1,23.3,0.1,46.6,0,70c0,2.3-0.6,4.6-0.9,6.8
			c0-26.4,0-52.8-0.1-79.2c0-3.3,0.9-5,4.5-4.8C112.9,8,117.4,7.9,121.9,8z"/>
		<path class="st6" d="M88.9,117.7c-0.3-1.9-0.8-3.9-0.8-5.8c-0.1-27-0.1-54.1,0-81.1c0-1.9,0.5-3.9,0.8-5.8
			C88.9,55.8,88.9,86.8,88.9,117.7z"/>
		<path class="st7" d="M219.9,7.9c-2,0.3-3.9,0.8-5.9,0.8c-25.3,0-50.6,0-75.9,0c1.2-0.3,2.5-0.9,3.7-0.9
			C167.8,7.8,193.9,7.9,219.9,7.9z"/>
		<path class="st4" d="M53.9,111.7c-0.3-1.8-0.9-3.6-0.9-5.3c-0.1-22-0.1-44.1,0-66.1c0-1.8,0.5-3.6,0.8-5.3
			C53.9,60.5,53.9,86.1,53.9,111.7z"/>
		<path class="st8" d="M504.9,425.7c-0.3-1.8-0.8-3.5-0.8-5.3c-0.1-12.4-0.1-24.8,0-37.2c0-1.8,0.5-3.5,0.8-5.3
			C504.9,393.8,504.9,409.8,504.9,425.7z"/>
		<path class="st5" d="M72,14.7c0,8.9,0.1,17.8,0,26.8c0,2.1-0.6,4.2-0.9,6.3c0-9.6-0.1-19.2,0-28.8C71.1,17.5,71.7,16.1,72,14.7z"
			/>
		<path class="st6" d="M70.2,98.9c-0.1,10.3-0.2,20.6-0.4,30.9C69.9,119.5,70,109.2,70.2,98.9z"/>
		<path class="st9" d="M438.9,52.7c-17.6,0.1-35.3,0.2-52.9,0.2c1.4-0.4,2.8-1.1,4.3-1.1c14.9-0.1,29.9-0.1,44.8,0
			C436.4,51.9,437.6,52.4,438.9,52.7z"/>
	</g>
</g>
<g>
	<g>
		<path class="st3" d="M256.9,492.8c-78.8,0-157.7,0-236.5,0c-9.2,0-10.4-1.1-10.4-10.3c0-21.8,0-43.7,0-65.5
			c0-11.1,4.5-20.2,11.6-28.3c6.9-7.9,15.6-13.3,24.6-18.5c4.5-2.5,8.9-5.3,13.6-7.2c7.4-3,15.2-5.4,22.7-8.2
			c13.9-5.2,27.8-10.5,41.8-15.6c7.3-2.7,15.2-3.9,22-7.5c10.9-5.8,22.8-10.3,31.7-19.3c8.8-8.9,12.4-19.9,10.8-32
			c-1.5-11-6.2-21.1-12-30.6c-3.6-5.9-5.9-12.5-8.8-18.9c-2.8-6.2-5.8-12.4-8.3-18.7c-5.7-14.4-9.6-29.4-10.5-44.8
			c-0.9-15.6-1.2-31.2-1-46.8c0.1-12.6,2.8-24.9,6.7-37c6-18.6,18-32.8,32.8-44.8c15.5-12.6,34.1-17.2,53.4-19.9
			c15.3-2.2,30.5-1.2,45.5,2.4c7.4,1.8,14.4,5.1,21.5,7.7c11.5,4.2,20.8,11.7,29.3,20c4.7,4.6,8.1,10.6,11.7,16.2
			c9.4,14.7,13.8,31.1,14.9,48.3c0.9,13.4,2,27,0.9,40.3c-1.2,15.3-4.2,30.5-7.3,45.6c-1.5,7.4-4.5,14.6-7.6,21.5
			c-5,11.1-10.5,22-15.9,32.9c-4.7,9.5-9.4,19.4-9.5,30c0,7.1,0.8,14.6,5.7,21.3c7.5,10.4,17.9,16.7,28.6,22.6
			c5.8,3.2,12.5,4.8,18.8,7.2c11.7,4.4,23.4,9,35.1,13.3c7.1,2.6,14.5,4.5,21.6,7.2c6.1,2.3,11.9,5.4,17.8,8.1
			c6.7,3.1,13.7,5.7,20.1,9.5c5.8,3.4,10.9,7.9,16.2,12c5.5,4.2,9.6,9.7,11.9,16.1c1.7,4.6,3.3,9.5,3.4,14.3
			c0.4,22.7,0.2,45.3,0.2,68c0,8.1-1.5,9.5-9.6,9.5C415.2,492.8,336,492.8,256.9,492.8z"/>
	</g>
</g>
</svg>
