<?xml version="1.0" encoding="utf-8"?>
<!-- Generator: Adobe Illustrator 20.1.0, SVG Export Plug-In . SVG Version: 6.00 Build 0)  -->
<svg version="1.1" id="Layer_1" xmlns="http://www.w3.org/2000/svg" xmlns:xlink="http://www.w3.org/1999/xlink" x="0px" y="0px"
	 viewBox="0 0 511.9 511.8" style="enable-background:new 0 0 511.9 511.8;" xml:space="preserve">
<style type="text/css">
	.st0{display:none;fill:#A0A0A0;}
	.st1{fill:#A0A0A0;}
</style>
<title>fb-icon</title>
<path class="st0" d="M197,281c13.2,0,26.3,0.2,39.5,0.1c4,0,5.6,1.2,5.6,5.4c-0.1,70.5-0.1,141,0,211.5c0,4-1.3,5.1-5.2,5.1
	c-61.2-0.1-122.3,0.1-183.5-0.1C27.7,502.9,4,478.4,4,452.7C4,318.4,4,184,4,49.7C4,24.2,28.3,0,53.8,0h403.5
	c24,0,48,21.7,49.6,45.7c1,14.6,1,29.3,1,43.9c0.1,119.2,0.1,238.3,0,357.5c0,28.9-17.2,50-45.4,55.5c-1.8,0.3-3.6,0.5-5.5,0.5
	c-38.8,0-77.7,0-116.5,0c-6.6,0-6.6,0-6.6-6.7c0-69.8,0-139.6,0-209.5c0-1.9,0.8-3.8,1.1-5.7c1.3,0.4,2.6,0.6,3.9,0.7
	c17.6,0,35.1,0,52.7,0c1.5-0.2,2.9-0.5,4.3-1c1.3-8.8,2.7-17.6,3.9-26.5c2-14.6,3.9-29.2,5.7-43.8c0.2-1.8,0.3-3.6,0.4-5.5
	c-2.2-0.5-4.5-0.9-6.8-1.1c-18.9-0.1-37.9-0.2-56.8,0c-5.1,0.1-6.7-1.7-6.6-6.6s-0.5-10.2-0.8-15.3c-0.1-9.5-0.3-19-0.1-28.4
	c0.2-8.5,6.6-15.5,15.7-17.6c2.1-0.5,4.3-0.6,6.4-1c15.7,0.1,31.3,0.1,47,0.2c0.3,0,0.6-0.3,0.9-0.4l-0.1,0.1c0.5-2.1,0.8-4.2,1-6.3
	c0.1-21.5,0.1-43,0-64.4c-0.1-2.1-0.4-4.2-0.9-6.3c-29.9,0-60-1.5-89.8,0.5c-35,2.3-67.6,27.3-72.3,64.3c-0.3,2.1-0.7,4.3-1.1,6.4
	c-0.4,2.3-0.7,4.6-0.9,6.9c-0.1,20.4,0,40.9,0,61.3c0,6.4-0.3,6.7-6.8,6.7c-10.3,0-20.6-0.1-30.9,0.1c-2.1,0.2-4.2,0.5-6.3,1
	l0.1-0.1c-0.5,1.9-0.8,3.8-1,5.8c-0.1,21.9-0.1,43.8,0,65.6C196.2,277.9,196.5,279.5,197,281z"/>
<g>
	<g>
		<path class="st1" d="M2.8,416.7c55.3,5.7,105.5-7.1,151.1-41.3c-22.6-2.1-42.3-9.1-59.3-22.6c-17-13.5-29.5-30.3-35.9-52.2
			c14.7,1.2,28.7,2.6,42.8-1.3c-55.8-15.5-81.2-65.8-79-104.9c6.9,2.7,13.6,5.9,20.6,8c6.9,2.1,14,3.3,21.5,4.3
			c-44-40.1-53.1-86.4-27.4-141c56.3,67.4,126.8,104.5,213.8,111c-0.5-4.3-0.7-7.9-1.3-11.4c-2-11.3-0.5-22.5,1.6-33.6
			c3.3-16.8,10.4-31.8,21.2-45C289.8,66,311.8,53,338.4,48.9c29.2-4.6,55.6,3.1,79.3,20.5c3.6,2.6,6.9,5.8,10.1,8.9
			c2.1,2.1,4.1,2.6,7.1,1.9c19.9-5.1,39-11.9,56.9-22.2c1.1-0.7,2.3-1.2,3.5-1.7c0.2-0.1,0.6,0.2,1.5,0.6
			c-7.3,23-21.1,41.2-40.5,55.5c18.8-2.1,36.6-7.5,54.7-15.5c-0.6,1.9-0.7,3-1.3,3.8c-13.4,19.2-29.4,36-47.8,50.5
			c-1.3,1.1-2.5,3.2-2.6,4.8c-0.9,15-0.3,30.2-2.4,45.1c-2.5,17.9-6.6,35.5-11,53c-2.4,9.8-6.7,19.1-10.3,28.5
			c-7.3,19.4-17.4,37.4-28.9,54.4c-13.3,19.7-27.8,38.6-46.3,53.8c-13.3,10.9-26.6,22-41,31.5c-23.7,15.6-49.7,27-77.4,33.3
			c-18.2,4.1-36.8,7-55.4,9c-13.5,1.5-27.3,1.8-40.9,1c-22.2-1.4-44.1-5.1-65.6-11.4c-19.9-5.9-38.8-13.8-57.1-23.3
			c-7.1-3.7-13.9-8.1-20.9-12.2C2.5,418,2.7,417.4,2.8,416.7z"/>
	</g>
</g>
</svg>
